<svg xmlns="http://www.w3.org/2000/svg" viewBox="0 0 350 350" class=""><path d="M174.716 359.114c-10.24 3.043-60.7-.317-88.862-33.204-28.161-32.886-17.639-80.619-13.257-91.457 10.069-24.905 14.603-31.713 11.877-53.995-1.817-14.854-5.289-28.97-10.415-42.347 10.29 5.296 17.259 9.573 20.907 12.828 9.16 8.175 14.03 18.236 17.534 24.583 5.595 10.137 8.892 26.857 9.892 50.16 5.373-14.51 7.306-27.255 5.798-38.238-3.725-27.129-14.943-40.928-20.247-61.653-5.717-22.336-6.546-46.183-4.64-56.075C109.267 38.759 122.545 15.52 143.137 0c-8.482 34.492-5.434 66.098 9.143 94.818 14.577 28.72 33.443 51.096 56.597 67.127-3.491-19.777-2.422-35.826 3.206-48.147 5.628-12.322 15.444-23.889 29.447-34.702-7.135 16.699-3.902 41.467 9.702 74.305 2.71 6.542 9.315 20.832 24.114 44.281 3.587 5.683 8.314 16.881 14.18 33.593 5.918 23.567 4.275 44.842-4.93 63.825-9.204 18.984-25.863 35.512-49.977 49.585 9.986-12.227 13.936-24.245 11.852-36.057-3.361-19.042-8-19.34-21.31-37.664-5.631-7.753-7.605-16.855-5.921-27.308-4.989 6.929-7.621 13.368-7.899 19.317-.277 5.95 1.516 16.106 5.378 30.47-6.991-5.322-11.31-11.223-12.958-17.7-5.305-20.856.184-34.785-5.852-54.584-3.802-12.47-12.682-22.345-26.64-29.625 7.893 17.532 10.592 32.822 8.097 45.87-2.495 13.047-8.358 26.292-17.588 39.735-1.046-9.71-3.555-17.055-7.529-22.035-3.974-4.98-8.951-8.528-14.933-10.645 5.609 12.878 6.339 29.358 2.19 49.44-8.454 40.932 5.453 52.946 33.21 65.215z" fill="currentColor" fill-rule="evenodd"/></svg>