<svg xmlns="http://www.w3.org/2000/svg" id="flag-icons-international" viewBox="0 0 640 480">
  <path d="M-0.8,0h640v480h-640V0z"></path>
  <g>
    <path fill="#FFCB05" d="M306.3,40.8v2.8c0,35.1,0,70.2,0,105.3c0,3.4,0.2,3.7,3.6,3.7c4.5,0,9.1,0,13.6,0c3.2,0,3.3-0.1,3.3-3.2
      c0-30,0-60,0-90c0-5.6,0-11.1,0-16.7c0-0.8,0.1-1.6,0.3-2.8c1,0.8,1.7,1.2,2.3,1.7c26.5,22.1,56.4,37.8,89.5,47.6
      c13,3.8,26.3,6.5,39.8,8.1c1.7,0.2,3.4,0.5,5.1,0.4c1.8,0,2.3,0.8,2.3,2.5c0.1,13.6,0.3,27.2,0.4,40.8c0.2,18.8,0.3,37.7,0.4,56.5
      c0,5.4,0.3,10.9,0.3,16.3c0,17.6-2.4,35-7.5,51.9c-6.5,21.4-16.8,40.9-30.4,58.7c-12.3,16.2-26.8,30.3-43,42.6
      c-8.2,6.2-16.7,11.9-25,17.8c-0.4,0.3-0.9,0.5-1.7,0.9c-0.1-1-0.3-1.7-0.3-2.4c0-6.3,0-12.7,0-19c0-1.6,0.6-2.5,1.8-3.4
      c14.8-10.2,28.6-21.7,41-34.8c17.1-18.2,30.5-38.6,38.4-62.4c4.2-12.6,7.2-25.5,7.5-38.7c0.5-21.2,0.4-42.4,0.5-63.5
      c0-8.1,0-16.2,0-24.4c0-0.8,0-1.6,0-2.9c-0.9,0.4-1.5,0.6-1.9,0.9c-24.8,15.8-51.8,26.3-80.6,32.1c-12.2,2.5-24.5,3.9-37,4.4
      c-23.9,0.9-47.5-1.4-70.8-6.7c-25.3-5.8-49-15.5-71-29.2c-0.3-0.2-0.7-0.4-1.2-0.6c-0.1,0.4-0.3,0.7-0.3,1
      c0.1,29.1-0.2,58.2,0.3,87.3c0.3,16.9,4.1,33.2,10.4,49c10.6,26.8,27.9,48.7,49.2,67.6c8.3,7.4,17.3,14,26,21
      c0.8,0.7,1.7,1.8,1.7,2.8c0.1,6.7,0.1,13.5,0.1,20.2c0,0.5-0.2,0.9-0.3,1.7c-0.7-0.3-1.3-0.5-1.7-0.8
      c-25.1-16.3-47.5-35.4-65.8-59.2c-12.9-16.7-23-34.9-29.6-54.9c-4.4-13.2-7.6-26.8-8.2-40.7c-0.7-17.4-0.8-34.8-0.8-52.2
      c-0.1-25.7,0-51.3,0-77c0-3.1,0.1-3.1,3-3.3c13.3-0.9,26.3-3.2,39.2-6.5c22.8-5.8,44.4-14.5,64.6-26.6c11-6.6,21.4-14,31-22.6
      c0.4-0.4,0.9-0.6,1.3-0.9C305.9,40.7,306.1,40.8,306.3,40.8L306.3,40.8z M189,112.7l0,0.5c0.4,0.3,0.7,0.6,1.1,0.8
      c8.2,4.7,16.3,9.8,24.8,14c21.8,10.8,44.8,18,68.9,21.7c2.8,0.4,2.9,0.4,2.9-2.5c0-22.8,0-45.7,0-68.5c0-0.6-0.1-1.3-0.1-2.3
      c-15.3,9.2-30.7,17.1-47,23.3C223.2,105.9,206.3,110.1,189,112.7L189,112.7z M443.3,114.3c0-0.2,0-0.5-0.1-0.7
      c-34.1-6.2-66.6-16.7-96.5-36c0,10.3,0,19.8,0,29.2c0,14,0.1,27.9,0.1,41.9c0,1.7,1,1.5,2.1,1.3c29-4.5,56.5-13.7,82-28.3
      C435.1,119.3,439.2,116.8,443.3,114.3L443.3,114.3z"></path>
    <path fill="#FFCB05" d="M346.6,440.2c-1.6-1.1-2.9-2-4.2-2.9c-4.5-3.2-8.9-6.4-13.5-9.5c-1.7-1.1-2.2-2.5-2.2-4.5
      c0-40.9,0-81.8,0-122.8c0-34,0-68,0-101.9c0-3.7,0.1-3.7,3.8-3.9c4.1-0.2,8.2-0.5,12.3-0.9c3.8-0.4,3.8-0.4,3.8,3.4
      c0,25.2,0,50.5,0,75.7c0,55.1,0,110.2,0,165.3C346.7,438.7,346.7,439.1,346.6,440.2L346.6,440.2z"></path>
    <path fill="#FFCB05" d="M287,440.2c-0.1-1.5-0.2-2.5-0.2-3.5c0-65.1,0-130.1,0-195.2c0-14.9,0-29.7,0-44.6c0-3.4,0-3.4,3.5-3.1
      c4.2,0.4,8.5,0.7,12.7,0.9c3.3,0.2,3.3,0.2,3.3,3.4c0,40.4,0,80.7,0,121.1c0,34.7,0,69.3,0,104c0,2.2-0.7,3.5-2.4,4.8
      c-5,3.4-9.8,7.1-14.7,10.6C288.7,439,288.1,439.4,287,440.2L287,440.2z"></path>
  </g>
</svg>