<svg viewBox="0 0 996 663" fill="none" xmlns="http://www.w3.org/2000/svg">
<path d="M51.813 436.484C51.813 436.484 -6.70706 402.502 1.02594 290.807C8.75994 179.112 119.614 179.638 119.614 179.638C119.614 179.638 21.1349 209.67 22.6809 302.924C24.2289 396.179 51.813 436.484 51.813 436.484Z" fill="currentColor"/>
<path d="M34.5409 411.986C34.5409 411.986 17.5259 327.687 133.536 277.109C249.546 226.53 339.331 253.926 339.331 253.926C339.331 253.926 -5.67708 297.656 51.8129 436.484L34.5409 411.986Z" fill="currentColor"/>
<path d="M106.209 179.638C106.209 179.638 96.9279 95.867 232.016 46.868C367.103 -2.13097 434.131 51.61 434.131 51.61C434.131 51.61 358.854 26.32 243.875 67.416C128.896 108.511 106.209 179.638 106.209 179.638Z" fill="currentColor"/>
<path d="M325.34 64.254C325.34 64.254 376.9 66.759 482.597 26.255C588.296 -14.249 671.824 -20.045 766.178 105.349C766.178 105.349 687.291 34.656 578.499 52.879C469.707 71.102 399.07 94.813 325.34 64.254Z" fill="currentColor"/>
<path d="M206.494 170.945C206.494 170.945 209.588 227.451 264.499 234.169C319.41 240.887 416.473 147.236 487.625 164.623C487.625 164.623 423.046 143.285 373.548 172.79C373.548 172.79 381.024 159.146 380.766 142.654C380.766 142.654 366.329 180.537 327.402 196.553C327.402 196.553 350.487 181.747 339.331 145.393C339.331 145.393 336.684 188.069 295.693 203.875C254.703 219.68 222.477 210.196 206.494 170.945Z" fill="currentColor"/>
<path d="M230.663 173.315C230.663 173.315 234.143 184.972 253.478 182.996C272.813 181.02 282.48 151.9 261.598 142.652C240.717 133.404 276.099 126.687 276.099 126.687L281.513 122.933C281.513 122.933 296.981 130.441 301.429 156.52C305.876 182.6 288.646 209.039 258.118 204.728C227.591 200.419 230.663 173.315 230.663 173.315Z" fill="currentColor"/>
<path d="M138.048 203.939C138.048 203.939 113.492 205.322 91.837 218.955C70.182 232.588 73.469 241.479 81.203 241.874C88.937 242.269 128.96 227.056 128.96 227.056C128.96 227.056 114.459 220.931 99.184 226.859C99.184 226.859 115.426 208.286 138.048 203.939Z" fill="currentColor"/>
<path d="M154.676 321.365C154.676 321.365 229.953 297.656 262.436 373.523C294.918 449.392 279.966 553.712 355.76 582.689C355.76 582.689 332.042 560.035 329.465 485.746C326.887 411.459 309.872 378.793 309.872 378.793C309.872 378.793 333.589 403.029 355.76 468.887C377.931 534.746 397.651 644.86 485.755 656.451C485.755 656.451 455.787 656.449 430.006 535.271C404.226 414.091 374.978 356.007 339.331 326.041C339.331 326.041 430.005 377.738 475.894 476.262C521.784 574.785 610.983 680.686 726.477 659.612C726.477 659.612 629.029 630.633 585.203 552.132C541.377 473.628 424.42 262.882 281.814 277.108L230.577 281.85L170.144 308.062L154.676 321.365Z" fill="currentColor"/>
<path d="M293.111 270.257C293.111 270.257 366.072 265.515 434.131 317.148C502.19 368.779 670.791 656.449 858.471 586.902C858.471 586.902 700.182 575.312 612.013 416.724C612.013 416.724 751.741 586.376 928.076 497.335C928.076 497.335 796.082 546.335 655.838 421.993C515.596 297.654 404.726 237.377 293.111 270.257Z" fill="currentColor"/>
<path d="M577.983 228.636C577.983 228.636 487.238 164.885 369.166 228.636C369.166 228.636 467.129 211.777 553.75 291.859C640.372 371.942 759.476 487.853 940.967 400.921C940.967 400.921 816.706 436.747 712.555 347.181C608.404 257.614 555.556 223.367 487.625 223.894C487.625 223.894 530.55 211.25 577.983 228.636Z" fill="currentColor"/>
<path d="M667.697 268.678C667.697 268.678 790.937 372.997 995.676 318.202C995.676 318.202 812.305 454.662 667.697 268.678Z" fill="currentColor"/>
<path d="M416.085 150.661C416.085 150.661 498.319 115.887 610.593 181.745C722.867 247.603 847.642 329.267 982.73 246.023C982.73 246.023 897.14 300.816 757.928 218.625C618.715 136.434 532.097 89.019 416.085 150.661Z" fill="currentColor"/>
<path d="M694.508 162.777C694.508 162.777 844.548 233.906 989.947 179.638C989.947 179.638 885.28 296.601 694.508 162.777Z" fill="currentColor"/>
<path d="M558.39 86.641L562.5 99.568H575.802L565.04 107.558L569.15 120.485L558.39 112.496L547.628 120.485L551.738 107.558L540.977 99.568H554.279L558.39 86.641Z" fill="currentColor"/>
<path d="M633.667 83.008L639.733 102.085H659.363L643.481 113.876L649.548 132.953L633.667 121.163L617.785 132.953L623.852 113.876L607.971 102.085H627.6L633.667 83.008Z" fill="currentColor"/>
<path d="M711.007 94.335L718.058 116.507H740.872L722.414 130.21L729.464 152.383L711.007 138.68L692.549 152.383L699.6 130.21L681.142 116.507H703.956L711.007 94.335Z" fill="currentColor"/>
<path d="M786.801 106.686L794.703 131.538H820.275L799.587 146.898L807.489 171.75L786.801 156.391L766.111 171.75L774.015 146.898L753.324 131.538H778.897L786.801 106.686Z" fill="currentColor"/>
<path d="M862.077 116.403L867.845 134.541H886.51L871.41 145.751L877.178 163.89L862.077 152.679L846.978 163.89L852.745 145.751L837.646 134.541H856.311L862.077 116.403Z" fill="currentColor"/>
<path d="M924.466 125.531L927.472 134.989H937.204L929.331 140.833L932.339 150.291L924.466 144.446L916.593 150.291L919.601 140.833L911.728 134.989H921.459L924.466 125.531Z" fill="currentColor"/>
<path d="M966.229 116.724L968.164 122.81H974.427L969.359 126.571L971.296 132.656L966.229 128.896L961.163 132.656L963.099 126.571L958.032 122.81H964.295L966.229 116.724Z" fill="currentColor"/>
<path d="M73.4679 388.671C73.4679 388.671 110.978 277.239 337.585 263.409C337.585 263.409 170.917 292.65 73.4679 388.671Z" fill="currentColor"/>
<path d="M133.794 162.251C133.794 162.251 145.395 197.814 181.745 166.993C218.095 136.171 237.43 111.935 268.624 97.71C268.624 97.71 243.618 109.828 231.759 130.376C231.759 130.376 257.281 96.92 313.739 88.753C313.739 88.753 300.204 92.441 291.697 98.237C291.697 98.237 364.655 70.971 452.435 117.599C452.435 117.599 349.573 98.632 278.807 136.171C208.041 173.71 201.66 192.677 167.051 196.234C132.44 199.791 133.794 172.525 133.794 162.251Z" fill="currentColor"/>
</svg>
