<svg viewBox="0 0 705 582" fill="none" xmlns="http://www.w3.org/2000/svg">
<path d="M408.69 0.207011C417.432 0.238011 422.83 5.47301 427.492 11.753L427.964 12.395C428.59 13.255 429.204 14.132 429.813 15.015L430.269 15.679C431.785 17.894 433.278 20.131 434.849 22.229C440.465 22.47 442.346 18.831 448.82 19.969C459.264 30.579 469.101 26.297 481.724 20.602C482.786 21.465 483.822 22.356 484.848 23.254L485.53 23.854C486.21 24.455 486.887 25.057 487.565 25.655L488.242 26.251C494.459 31.698 500.832 36.6 510.539 36.352C512.157 47.212 521.084 51.044 526.573 58.182C530.092 76.922 537.876 91.551 540.645 111.004L540.731 111L620.016 485H669.593L705 581.243H0.289978L29.179 485H81.29L147.011 177.512L147.18 177.455L147.011 177.452C147.029 176.608 147.042 175.768 147.059 174.92C156.181 175.888 158.692 169.977 161.324 164.192L161.564 163.667C162.847 160.869 164.206 158.15 166.409 156.31C169.742 156 167.306 161.235 171.395 160.203C173.808 151.666 182.106 149.242 190.805 147.236L191.574 147.06L192.344 146.885L193.499 146.623L193.883 146.536L194.652 146.36C195.164 146.242 195.674 146.122 196.182 146L196.942 145.815C198.708 145.377 200.438 144.901 202.082 144.335C203.617 134.673 191.816 133.711 196.125 125.23C200.976 119.51 207.527 128.49 213.865 124.307C219.149 120.407 212.382 118.867 212.82 112.897C215.89 109.55 217.301 104.482 218.75 99.454L219.063 98.378C220.579 93.187 222.266 88.174 226.011 85.298C237.466 87.985 246.394 82.991 254.371 77.72L255.082 77.247L255.789 76.774L256.491 76.302C258.709 74.81 260.861 73.349 262.983 72.088C265.423 72.206 266.307 73.824 267.039 75.587L267.179 75.93L267.387 76.446L267.528 76.788C268.477 79.06 269.702 81.066 274.224 79.9C278.825 77.372 279.224 70.466 285.806 69.998C291.842 69.985 292.642 75.01 298.368 75.299C302.261 68.589 311.013 66.927 313.873 59.142C323.797 91.469 344.057 50.097 355.954 43.496C356.326 33.992 359.781 27.681 367.685 25.996C375.011 31.739 386.212 35.544 392.992 26.49C391.706 22.348 389.392 19.186 386.855 16.242C396.041 10.582 397.147 0.164011 408.69 0.207011Z" fill="currentColor"/>
<mask id="mask0_2_3" style="mask-type:alpha" maskUnits="userSpaceOnUse" x="0" y="0" width="705" height="582">
<path d="M408.69 0.207011C417.432 0.238011 422.83 5.47301 427.492 11.753L427.964 12.395C428.59 13.255 429.204 14.132 429.813 15.015L430.269 15.679C431.785 17.894 433.278 20.131 434.849 22.229C440.465 22.47 442.346 18.831 448.82 19.969C459.264 30.579 469.101 26.297 481.724 20.602C482.786 21.465 483.822 22.356 484.848 23.254L485.53 23.854C486.21 24.455 486.887 25.057 487.565 25.655L488.242 26.251C494.459 31.698 500.832 36.6 510.539 36.352C512.157 47.212 521.084 51.044 526.573 58.182C530.092 76.922 537.876 91.551 540.645 111.004L540.731 111L620.016 485H669.593L705 581.243H0.289978L29.179 485H81.29L147.011 177.512L147.18 177.455L147.011 177.452C147.029 176.608 147.042 175.768 147.059 174.92C156.181 175.888 158.692 169.977 161.324 164.192L161.564 163.667C162.847 160.869 164.206 158.15 166.409 156.31C169.742 156 167.306 161.235 171.395 160.203C173.808 151.666 182.106 149.242 190.805 147.236L191.574 147.06L192.344 146.885L193.499 146.623L193.883 146.536L194.652 146.36C195.164 146.242 195.674 146.122 196.182 146L196.942 145.815C198.708 145.377 200.438 144.901 202.082 144.335C203.617 134.673 191.816 133.711 196.125 125.23C200.976 119.51 207.527 128.49 213.865 124.307C219.149 120.407 212.382 118.867 212.82 112.897C215.89 109.55 217.301 104.482 218.75 99.454L219.063 98.378C220.579 93.187 222.266 88.174 226.011 85.298C237.466 87.985 246.394 82.991 254.371 77.72L255.082 77.247L255.789 76.774L256.491 76.302C258.709 74.81 260.861 73.349 262.983 72.088C265.423 72.206 266.307 73.824 267.039 75.587L267.179 75.93L267.387 76.446L267.528 76.788C268.477 79.06 269.702 81.066 274.224 79.9C278.825 77.372 279.224 70.466 285.806 69.998C291.842 69.985 292.642 75.01 298.368 75.299C302.261 68.589 311.013 66.927 313.873 59.142C323.797 91.469 344.057 50.097 355.954 43.496C356.326 33.992 359.781 27.681 367.685 25.996C375.011 31.739 386.212 35.544 392.992 26.49C391.706 22.348 389.392 19.186 386.855 16.242C396.041 10.582 397.147 0.164011 408.69 0.207011Z" fill="white"/>
</mask>
<g mask="url(#mask0_2_3)">
<path fill-rule="evenodd" clip-rule="evenodd" d="M420.292 -6.77746C416.962 -5.77321 413.396 -4.97472 409.707 -4.98799C406.971 -4.99787 404.924 -4.4021 403.235 -3.46038C401.523 -2.50625 400.101 -1.1545 398.668 0.47217C398.061 1.16143 397.448 1.90962 396.809 2.6897C394.71 5.25165 392.329 8.15746 388.947 10.4489C388.899 10.7981 388.732 11.1937 388.318 11.4937C387.843 11.8372 387.34 11.804 387.211 11.7948C386.859 11.7696 386.507 11.644 386.286 11.5598C386.018 11.4575 385.712 11.3227 385.389 11.1718C384.598 10.802 383.532 10.2512 382.387 9.66015C381.712 9.31173 381.01 8.94928 380.321 8.60159C378.389 7.62629 376.543 6.75654 375.29 6.37493C375.254 6.36387 375.218 6.3534 375.184 6.3435L375.024 6.55415C371.894 10.6693 372.119 15.1226 372.336 18.1974L372.349 18.379C372.397 19.0533 372.445 19.7298 372.429 20.2776C372.42 20.5805 372.391 20.9305 372.298 21.2687C372.206 21.602 372.012 22.0682 371.567 22.4229C371.087 22.8059 370.535 22.8869 370.078 22.8421C369.657 22.8008 369.264 22.6509 368.934 22.4914C368.403 22.2354 367.783 21.8302 367.068 21.3013C363.141 22.1266 359.175 22.9961 356.071 24.675C354.458 25.5472 353.147 26.6052 352.217 27.9289C351.296 29.2394 350.696 30.8852 350.611 33.0305L350.577 33.8799L349.831 34.2874C347.053 35.8047 344.122 39.0041 341.001 42.733C340.424 43.4217 339.842 44.1275 339.256 44.8381C336.763 47.86 334.197 50.9712 331.674 53.2464C328.631 55.9908 325.01 58.1054 321.266 56.4578C319.47 55.6676 317.878 54.0897 316.434 51.771C315.436 50.1686 314.478 48.1612 313.552 45.7039C311.733 49.193 309.108 53.1633 306.485 56.9617C305.407 58.5218 304.328 60.0545 303.293 61.5261C300.839 65.0125 298.627 68.1559 297.241 70.5075L296.781 71.2893L295.874 71.2442C292.543 71.0783 290.55 69.5575 288.882 68.285C288.816 68.2341 288.749 68.1837 288.684 68.1337C287.026 66.8724 285.61 65.8719 283.049 65.864C280.352 66.0692 278.913 67.4957 277.472 69.4856C277.227 69.8237 276.962 70.2097 276.685 70.6139C276.195 71.3273 275.666 72.0973 275.141 72.7606C274.263 73.8698 273.2 74.9598 271.766 75.7354L271.602 75.824L271.421 75.8698C268.945 76.499 267.018 76.3781 265.523 75.4797C264.071 74.6077 263.345 73.1795 262.845 72.0275C262.693 71.6781 262.562 71.3564 262.439 71.058C262.108 70.2486 261.847 69.6101 261.446 69.0515C261.07 68.5283 260.612 68.1489 259.793 68.0237C254.256 71.1246 247.92 72.0203 241.062 71.7143C234.244 71.41 226.792 69.9099 218.936 68.1068C215.257 70.992 211.073 75.2687 206.953 79.7629C204.918 81.9827 202.865 84.2939 200.916 86.4888C198.958 88.6939 197.104 90.7816 195.476 92.5414C195.465 93.7355 195.693 95.1751 196.044 96.8268C196.194 97.5297 196.371 98.2937 196.554 99.0802C196.835 100.285 197.127 101.543 197.349 102.714C197.726 104.698 197.977 106.769 197.723 108.655C197.464 110.589 196.659 112.409 194.883 113.699L194.851 113.723L194.818 113.744C194.029 114.257 193.504 114.645 193.163 114.941C193.093 115.002 193.034 115.056 192.985 115.103C193.303 115.515 193.834 116.295 193.749 117.451C193.664 118.599 192.999 119.825 191.769 121.279C190.001 124.669 188.276 126.797 186.834 128.575C186.423 129.083 186.034 129.562 185.674 130.034C184.087 132.117 182.822 134.306 182.072 138.952L181.928 139.844L181.072 140.134C177.858 141.222 175.31 141.221 173.237 140.751C171.548 140.367 170.2 139.664 169.254 139.171C169.072 139.076 168.905 138.989 168.753 138.913C168.23 138.652 167.979 138.571 167.843 138.555C167.823 138.553 167.859 138.533 167.811 138.575C167.682 138.687 167.423 139.004 167.07 139.797C166.727 140.566 166.346 141.661 165.906 143.196L165.667 144.029L164.826 144.238C163.404 144.591 161.95 144.376 160.631 143.981C159.307 143.585 157.977 142.965 156.763 142.368C156.48 142.229 156.204 142.091 155.934 141.958C155.011 141.498 154.168 141.079 153.368 140.751C152.571 140.425 151.962 140.256 151.505 140.212C144.753 145.649 134.09 151.489 121.071 151.163C121.441 151.614 121.857 152.114 122.31 152.656C124.248 154.972 126.836 157.992 129.433 161.022L129.452 161.044C132.039 164.062 134.632 167.088 136.58 169.415C137.554 170.58 138.377 171.581 138.959 172.323C139.247 172.692 139.491 173.015 139.668 173.27C139.754 173.394 139.843 173.53 139.916 173.66C139.94 173.703 139.969 173.757 139.999 173.821C140.03 173.839 140.074 173.863 140.136 173.891C140.404 174.014 140.842 174.146 141.493 174.26C142.786 174.486 144.631 174.594 146.955 174.597C151.586 174.601 157.843 174.188 164.794 173.621C168.125 173.349 171.615 173.042 175.151 172.731C186.018 171.776 197.321 170.782 205.812 170.654C206.057 170.305 206.262 169.793 206.399 169.052C206.589 168.026 206.615 166.759 206.568 165.313C206.546 164.613 206.508 163.895 206.469 163.159L206.467 163.109C206.427 162.361 206.387 161.594 206.365 160.842C206.321 159.354 206.341 157.823 206.606 156.468L206.826 155.343L207.97 155.26C212.077 154.963 216.064 154.935 219.291 155.749C222.191 156.481 224.654 157.95 225.931 160.635C237.462 159.816 249.187 160.702 260.948 161.59C261.622 161.641 262.295 161.692 262.969 161.742C275.829 162.707 288.747 163.563 301.779 162.191C303.517 162.008 305.344 161.321 307.363 160.523C307.481 160.476 307.601 160.429 307.721 160.382C309.558 159.653 311.571 158.855 313.532 158.563L313.534 158.563C325.498 156.795 338.487 157.047 351.45 157.787C355.932 158.043 360.401 158.356 364.827 158.666C373.265 159.257 381.549 159.837 389.479 159.989C398.382 160.158 407.626 160.846 416.7 161.521C421.034 161.844 425.329 162.163 429.53 162.422C442.602 163.228 454.792 163.448 464.84 161.458C471.304 160.177 476.488 155.54 482.058 150.558L482.507 150.157C487.944 145.298 493.803 140.18 501.335 139.09C503.562 136.24 505.31 132.997 506.099 128.76L506.294 127.717L507.343 127.553C515.675 126.253 521.559 122.44 527.155 118.041C528.317 117.128 529.475 116.181 530.644 115.225C534.788 111.836 539.081 108.326 544.245 105.744C543.097 96.2757 543.854 85.6872 544.596 75.3147C544.634 74.782 544.672 74.2499 544.71 73.7185C545.507 62.498 546.17 51.614 544.467 42.3082C543.316 40.9802 541.647 40.082 539.566 39.3748C537.981 38.8362 536.303 38.4505 534.546 38.0468C533.802 37.8757 533.044 37.7015 532.273 37.511C529.779 36.8951 527.193 36.1146 525.114 34.6818C523.259 33.4043 521.839 31.6305 521.17 29.1296C518.372 29.0906 516.348 28.6469 514.868 27.7319C513.095 26.6355 512.362 25.0252 511.875 23.4699C511.712 22.9493 511.57 22.4245 511.427 21.8962C510.776 19.4864 510.105 17.0026 507.301 14.4982C500.313 17.1266 492.209 14.732 484.789 10.6619C477.142 6.46701 469.819 0.275478 464.41 -5.08971C457.836 -6.20438 449.259 -7.20935 443.683 -7.44532L442.979 -7.4751L442.552 -8.03572C440.968 -10.1186 439.175 -10.9651 437.138 -11.148C435.001 -11.3401 432.52 -10.8067 429.626 -9.90029C428.331 -9.49484 426.994 -9.02862 425.594 -8.54046L425.14 -8.38206C423.584 -7.84008 421.958 -7.28009 420.292 -6.77746ZM137.296 174.508L137.165 174.506C137.165 174.516 137.165 174.526 137.165 174.536M137.165 174.536L137.296 174.508ZM138.628 174.552L137.165 174.537C137.165 174.813 137.246 175.01 137.258 175.037L137.259 175.039C137.272 175.071 137.283 175.094 137.288 175.106C137.293 175.116 137.297 175.122 137.298 175.124L137.297 175.122C137.296 175.121 137.294 175.118 137.292 175.114C137.287 175.106 137.281 175.096 137.272 175.083C137.265 175.072 137.257 175.059 137.248 175.045C137.234 175.025 137.219 175.003 137.202 174.977C137.076 174.796 136.875 174.528 136.598 174.174C136.047 173.471 135.249 172.5 134.279 171.34C132.342 169.026 129.755 166.008 127.159 162.979L127.155 162.975C124.563 159.949 121.961 156.914 120.009 154.581C119.034 153.416 118.211 152.415 117.629 151.672C117.341 151.303 117.097 150.98 116.92 150.725C116.833 150.6 116.745 150.464 116.672 150.334C116.636 150.27 116.588 150.179 116.545 150.072L116.544 150.07C116.517 150.003 116.417 149.752 116.423 149.427L116.456 147.796L118.079 147.965C131.788 149.397 143.094 143.248 150.017 137.554L150.373 137.262L150.833 137.219C152.071 137.105 153.365 137.509 154.503 137.974C155.417 138.348 156.394 138.835 157.335 139.303C157.589 139.429 157.84 139.555 158.086 139.676C159.29 140.267 160.426 140.789 161.49 141.107C162.179 141.313 162.78 141.415 163.304 141.416C163.656 140.271 163.993 139.331 164.33 138.575C164.746 137.642 165.221 136.85 165.845 136.309C166.55 135.697 167.358 135.48 168.184 135.575C168.895 135.656 169.564 135.965 170.091 136.228C170.302 136.333 170.511 136.441 170.72 136.55C171.662 137.037 172.623 137.535 173.901 137.825C175.245 138.13 176.975 138.2 179.27 137.553C180.126 132.988 181.534 130.516 183.289 128.215C183.713 127.658 184.144 127.126 184.582 126.585C186.022 124.807 187.542 122.929 189.184 119.748L189.265 119.591L189.38 119.457C190.578 118.067 190.743 117.419 190.757 117.23C190.757 117.225 190.758 117.22 190.758 117.216C190.765 117.173 190.77 117.141 190.502 116.798C190.495 116.79 190.488 116.78 190.48 116.77C190.355 116.611 190.08 116.263 189.929 115.829C189.726 115.246 189.767 114.628 190.058 114.038C190.309 113.53 190.725 113.085 191.197 112.675C191.679 112.257 192.321 111.79 193.148 111.251C194.079 110.563 194.571 109.587 194.75 108.255C194.937 106.861 194.763 105.177 194.402 103.274C194.184 102.127 193.925 101.016 193.661 99.8847C193.475 99.0905 193.288 98.2859 193.11 97.451C192.703 95.5379 192.375 93.5608 192.505 91.8147L192.544 91.289L192.904 90.9034C194.646 89.034 196.568 86.8681 198.629 84.5461C200.557 82.3742 202.605 80.0657 204.741 77.7357C209.073 73.0102 213.631 68.3494 217.677 65.2895L218.237 64.8667L218.92 65.0245C227.03 66.898 234.48 68.4175 241.196 68.7173C247.898 69.0164 253.741 68.0932 258.703 65.1913L259.087 64.9666L259.531 64.9877C261.617 65.0868 262.97 66.0299 263.883 67.3023C264.51 68.1766 264.96 69.2805 265.321 70.1676C265.419 70.4082 265.51 70.633 265.597 70.8328C266.066 71.9144 266.483 72.5567 267.068 72.908C267.592 73.2229 268.552 73.4724 270.496 73.0082C271.363 72.5039 272.085 71.7873 272.789 70.8987C273.269 70.2915 273.672 69.7021 274.105 69.069C274.393 68.6469 274.695 68.2054 275.042 67.7262C276.681 65.4627 278.833 63.1516 282.89 62.8677L282.941 62.8641L282.992 62.864C286.623 62.8564 288.724 64.395 290.5 65.7461L290.599 65.8212C292.072 66.9426 293.282 67.8635 295.156 68.1594C296.611 65.8062 298.705 62.8311 300.929 59.6712C301.947 58.2245 302.992 56.7389 304.016 55.2566C307.616 50.0446 310.949 44.8766 312.348 41.1296L313.88 37.0229L315.185 41.2075C316.444 45.2444 317.719 48.1581 318.981 50.1853C320.247 52.2189 321.434 53.2542 322.474 53.7119C324.402 54.5601 326.681 53.7095 329.665 51.0186C332.006 48.907 334.387 46.0222 336.87 43.0138C337.474 42.2825 338.084 41.5439 338.7 40.8074C341.539 37.4154 344.565 34.0162 347.669 32.0787C347.887 29.7702 348.621 27.829 349.762 26.2044C351.028 24.4014 352.744 23.0637 354.643 22.0363C358.257 20.082 362.782 19.1339 366.697 18.3136L367.797 18.0829L368.344 18.5056C368.762 18.8276 369.111 19.0832 369.403 19.2831C369.389 19.056 369.371 18.8009 369.351 18.5132L369.343 18.4082C369.132 15.4055 368.798 10.1843 372.257 5.25607C372.256 5.02426 372.288 4.77694 372.378 4.52631C372.63 3.82422 373.194 3.44824 373.716 3.29795C374.175 3.16571 374.638 3.189 374.993 3.23635C375.372 3.2868 375.77 3.38526 376.164 3.50511C377.702 3.97351 379.771 4.96325 381.673 5.92346C382.434 6.30762 383.168 6.68714 383.853 7.04097C384.906 7.58459 385.841 8.06755 386.573 8.41344C389.911 6.34886 392.085 3.70167 394.3 1.00516C394.99 0.165902 395.683 -0.678137 396.417 -1.51087C397.941 -3.24108 399.628 -4.88439 401.774 -6.08073C403.942 -7.28948 406.501 -7.99959 409.717 -7.98797C412.98 -7.97623 416.223 -8.68374 419.425 -9.64968C421.025 -10.1321 422.597 -10.6733 424.153 -11.2151L424.611 -11.3749C426.003 -11.8601 427.386 -12.3425 428.729 -12.7632C431.684 -13.6885 434.644 -14.3842 437.407 -14.136C440.07 -13.8967 442.476 -12.7874 444.491 -10.4108C450.359 -10.1131 458.921 -9.08376 465.387 -7.96606L465.856 -7.88501L466.193 -7.54849C471.523 -2.21683 478.766 3.93585 486.232 8.03165C493.772 12.1681 501.13 13.9866 506.965 11.3951L507.799 11.0249L508.511 11.5947C512.699 14.9454 513.666 18.5989 514.366 21.2426C514.493 21.7219 514.611 22.168 514.738 22.5731C515.145 23.8739 515.586 24.6483 516.446 25.1804C517.387 25.7624 519.075 26.2047 522.349 26.1225L523.672 26.0893L523.87 27.3975C524.221 29.7181 525.297 31.1651 526.816 32.2114C528.411 33.3108 530.531 33.9905 532.992 34.5985C533.655 34.7624 534.35 34.9221 535.059 35.0852C536.877 35.5033 538.793 35.9438 540.531 36.5343C542.985 37.3681 545.377 38.5848 547.053 40.7307L547.276 41.0166L547.344 41.373C549.221 51.2127 548.505 62.6399 547.703 73.9311C547.668 74.4219 547.633 74.9125 547.598 75.4027C546.82 86.2856 546.055 97.0001 547.357 106.419L547.509 107.516L546.505 107.984C541.267 110.425 537.065 113.858 532.698 117.426C531.489 118.413 530.268 119.41 529.009 120.4C523.478 124.748 517.373 128.78 508.836 130.342C507.803 134.903 505.752 138.415 503.295 141.445L502.909 141.921L502.299 141.99C495.561 142.754 490.215 147.292 484.506 152.394C484.275 152.6 484.044 152.807 483.813 153.014C478.458 157.81 472.712 162.956 465.424 164.4C454.96 166.473 442.427 166.222 429.345 165.417C425.062 165.153 420.723 164.83 416.367 164.505C407.341 163.833 398.243 163.156 389.421 162.989C381.421 162.835 372.998 162.245 364.507 161.651C360.1 161.343 355.674 161.033 351.279 160.782C338.358 160.045 325.621 159.809 313.974 161.531C312.367 161.769 310.656 162.447 308.706 163.218L308.466 163.313C306.503 164.089 304.303 164.941 302.095 165.175C288.759 166.578 275.587 165.698 262.745 164.734C262.093 164.685 261.443 164.636 260.793 164.587C248.592 163.666 236.709 162.769 225.063 163.709L223.871 163.805L223.511 162.665C222.855 160.584 221.23 159.333 218.556 158.658C216.102 158.038 212.961 157.967 209.401 158.173C209.339 158.942 209.336 159.807 209.364 160.753C209.385 161.465 209.423 162.198 209.463 162.951C209.502 163.698 209.543 164.465 209.567 165.217C209.614 166.706 209.601 168.24 209.348 169.6C209.098 170.95 208.575 172.333 207.434 173.294L207.022 173.641L206.483 173.646C198.053 173.73 186.633 174.734 175.519 175.711C171.958 176.024 168.428 176.335 165.038 176.611C158.089 177.178 151.721 177.601 146.952 177.597C144.576 177.594 142.527 177.486 140.976 177.215C140.205 177.08 139.484 176.893 138.885 176.618C138.314 176.357 137.636 175.915 137.294 175.145L138.628 174.552ZM375.249 5.15087C375.249 5.15124 375.251 5.15652 375.252 5.16636C375.249 5.15548 375.249 5.15049 375.249 5.15087ZM123.716 214H575.259L603.997 319.982L602.837 320.509C602.152 320.821 601.571 321.088 601.092 321.308C600.703 321.486 600.382 321.634 600.129 321.748C599.62 321.979 599.142 322.194 598.789 322.272L598.783 322.273C598.652 322.302 597.941 322.46 597.33 321.927C597.084 321.713 596.956 321.469 596.889 321.291C596.882 321.29 596.876 321.288 596.869 321.286C596.503 321.201 595.844 321.12 594.713 321.12C592.456 321.12 588.58 321.438 581.964 322.447C575.03 323.505 568.462 324.982 561.902 326.458C558.46 327.232 555.021 328.005 551.532 328.718C541.456 330.775 531.142 332.275 519.754 331.589C503.413 330.606 481.906 322.848 462.322 314.581C452.948 310.624 443.964 306.527 436.138 302.959L435.023 302.451C426.916 298.755 420.178 295.701 415.6 294.006C409.504 291.748 403.202 289.966 396.819 288.245C395.673 287.936 394.523 287.629 393.371 287.321C388.13 285.92 382.85 284.509 377.663 282.87C372.487 281.235 368.107 277.424 364.009 273.859C363.42 273.347 362.838 272.84 362.259 272.345C357.506 268.28 352.974 264.947 347.402 264.714C332.746 264.099 318.059 264.736 303.299 265.386L302.984 265.399C288.349 266.043 273.639 266.69 258.938 266.106C251.47 265.809 244.149 264.501 236.934 263.1C236.01 262.921 235.089 262.74 234.169 262.56C227.871 261.324 221.648 260.104 215.348 259.461C169.7 254.807 164.373 254.828 134.111 254.949C128.482 254.972 121.99 254.998 114.216 254.998V253.498L112.772 253.094L123.716 214ZM116.194 251.997C123.087 251.994 128.946 251.97 134.089 251.95C164.433 251.829 169.852 251.807 215.652 256.477C222.101 257.134 228.47 258.384 234.757 259.618C235.675 259.798 236.591 259.978 237.506 260.155C244.715 261.555 251.838 262.821 259.058 263.108C273.633 263.687 288.236 263.045 302.913 262.4L303.167 262.388C317.908 261.74 332.722 261.096 347.528 261.716C354.24 261.997 359.483 266.023 364.209 270.065C364.817 270.585 365.417 271.105 366.01 271.62C370.171 275.228 374.033 278.577 378.567 280.01C383.683 281.626 388.884 283.016 394.121 284.416C395.279 284.726 396.439 285.036 397.6 285.349C403.994 287.073 410.408 288.884 416.642 291.192C421.347 292.935 428.203 296.045 436.268 299.721L437.372 300.225C445.204 303.796 454.155 307.877 463.488 311.817C483.097 320.094 504.168 327.646 519.934 328.595C530.945 329.258 540.966 327.813 550.932 325.778C554.299 325.091 557.68 324.331 561.096 323.563C567.725 322.073 574.482 320.554 581.512 319.481C588.173 318.465 592.227 318.12 594.713 318.12C595.952 318.12 596.868 318.206 597.551 318.365C598.064 318.485 598.556 318.671 598.952 318.988C599.335 318.814 599.807 318.596 600.435 318.308L572.965 217H125.992L116.194 251.997ZM-12.0862 484.622H708L748.794 595.622H-45.3708L-12.0862 484.622ZM-9.85381 487.622L-41.3392 592.622H744.496L705.906 487.622H-9.85381Z" fill="white"/>
</g>
</svg>
