<svg width="706" height="583" xmlns="http://www.w3.org/2000/svg" xmlns:xlink="http://www.w3.org/1999/xlink"><defs><path d="M408.4 0c8.742.031 14.14 5.266 18.802 11.546l.472.642c.626.86 1.24 1.737 1.849 2.62l.456.664c1.516 2.215 3.009 4.452 4.58 6.55 5.616.241 7.497-3.398 13.971-2.26 10.444 10.61 20.281 6.328 32.904.633 1.062.863 2.098 1.754 3.124 2.652l.682.6c.68.601 1.357 1.203 2.035 1.801l.677.596c6.217 5.447 12.59 10.349 22.297 10.101 1.618 10.86 10.545 14.692 16.034 21.83 3.519 18.74 11.303 33.369 14.072 52.822l.086-.004 79.285 374h49.577l35.407 96.243H0l28.889-96.243H81l65.721-307.488.169-.057-.169-.003c.018-.844.031-1.684.048-2.532 9.122.968 11.633-4.943 14.265-10.728l.24-.525c1.283-2.798 2.642-5.517 4.845-7.357 3.333-.31.897 4.925 4.986 3.893 2.413-8.537 10.711-10.961 19.41-12.967l.769-.176.77-.175 1.155-.262.384-.087.769-.176c.512-.118 1.022-.238 1.53-.36l.76-.185c1.766-.438 3.496-.914 5.14-1.48 1.535-9.662-10.266-10.624-5.957-19.105 4.851-5.72 11.402 3.26 17.74-.923 5.284-3.9-1.483-5.44-1.045-11.41 3.07-3.347 4.481-8.415 5.93-13.443l.313-1.076c1.516-5.191 3.203-10.204 6.948-13.08 11.455 2.687 20.383-2.307 28.36-7.578l.711-.473.707-.473.702-.472c2.218-1.492 4.37-2.953 6.492-4.214 2.44.118 3.324 1.736 4.056 3.499l.14.343.208.516.141.342c.949 2.272 2.174 4.278 6.696 3.112 4.601-2.528 5-9.434 11.582-9.902 6.036-.013 6.836 5.012 12.562 5.301 3.893-6.71 12.645-8.372 15.505-16.157 9.924 32.327 30.184-9.045 42.081-15.646.372-9.504 3.827-15.815 11.731-17.5 7.326 5.743 18.527 9.548 25.307.494-1.286-4.142-3.6-7.304-6.137-10.248C395.751 10.375 396.857-.043 408.4 0Z" id="a"/></defs><g transform="translate(.29 .207)" fill="none" fill-rule="evenodd"><mask id="b" fill="#fff"><use xlink:href="#a"/></mask><use fill="#000" xlink:href="#a"/><path stroke="#FFF" stroke-width="3" mask="url(#b)" d="M-11.26 485.915h717.923l39.692 108h-790zM138.375 174.33c.018-.857-20.759-24.219-20.742-25.08 14.253 1.489 25.948-4.906 33.047-10.744 3.437-.316 9.278 5.117 13.494 4.069 3.586-12.491 4.26-.05 16.127-4.069 1.583-9.809 5.483-9.668 9.926-18.277 5.002-5.808-3.051-3.705 3.484-7.95 5.45-3.961-.451-14.498 0-20.56 6.671-7.158 16.725-19.5 24.581-25.44 16.22 3.747 30.28 6.199 40.878 0 6.333.301 2.499 10.24 11.592 7.93 4.744-2.566 5.155-9.577 11.943-10.052 6.224-.013 7.05 5.088 12.954 5.382 4.014-6.812 14.855-20.189 17.804-28.092 10.234 32.818 23.09-1.981 35.359-8.683.383-9.648 10.165-11.567 18.316-13.278 7.554 5.83-.59-4.855 6.402-14.047-1.326-4.205 15.982 7.134 13.366 4.145 9.472-5.746 10.613-16.322 22.516-16.279 13.904.05 26.66-12.148 34.034-2.456 5.79.245 14.71 1.302 21.386 2.456 10.77 10.773 29.425 25.035 42.442 19.254 9.002 7.202 1.346 15.194 14.813 14.856 1.669 11.025 17.824 6.785 23.484 14.032 3.667 19.227-2.773 44.905 0 64.97-13.788 6.426-20.883 19.694-38.297 22.411-.888 4.769-2.923 8.356-5.444 11.465-14.573 1.652-22.758 19.607-36.998 22.429-20.512 4.063-49.446-.942-75.682-1.44-24.243-.466-52.085-4.932-75.697-1.442-3.761.559-7.87 3.219-11.816 3.636-26.368 2.775-52.18-3.472-76.995-1.469-1.732-5.493-8.696-6.049-16.864-5.458-.925 4.733 1.434 12.828-1.61 15.39-22.405.223-65.8 6.9-67.803 2.39ZM113.926 253.291c49.583 0 47.067-1.057 101.284 4.471 14.61 1.49 28.81 6.054 43.498 6.638 29.465 1.171 59.005-2.627 88.467-1.392 12.284.514 19.55 14.718 30.65 18.225 12.575 3.973 25.676 6.593 38.006 11.159 18.567 6.875 71.616 35.56 103.723 37.493 22.399 1.349 40.67-5.89 61.894-9.128 26.555-4.051 10.324 2.798 20.478-1.82l-28.104-103.644H124.564l-10.638 37.998Z"/></g></svg>