<?xml version="1.0" standalone="no"?>
<!DOCTYPE svg PUBLIC "-//W3C//DTD SVG 20010904//EN"
 "http://www.w3.org/TR/2001/REC-SVG-20010904/DTD/svg10.dtd">
<svg version="1.0" xmlns="http://www.w3.org/2000/svg"
 width="1024.000000pt" height="1024.000000pt" viewBox="0 0 1024.000000 1024.000000"
 preserveAspectRatio="xMidYMid meet">
<metadata>
Created by potrace 1.14, written by Peter Selinger 2001-2017
</metadata>
<g transform="translate(0.000000,1024.000000) scale(0.100000,-0.100000)"
fill="#000000" stroke="none">
<path d="M4879 10235 c-2 -1 -49 -6 -104 -10 -125 -8 -390 -47 -515 -75 -52
-12 -106 -23 -120 -26 -83 -17 -358 -100 -450 -137 -14 -6 -29 -11 -35 -12
-12 -3 -171 -69 -235 -97 -64 -29 -288 -141 -330 -166 -19 -11 -53 -30 -74
-42 -32 -17 -192 -120 -270 -172 -161 -110 -393 -305 -566 -478 -279 -278
-511 -585 -694 -917 -36 -65 -70 -124 -76 -130 -6 -7 -9 -13 -6 -13 3 0 -8
-26 -24 -57 -125 -254 -272 -664 -305 -852 -3 -19 -8 -38 -11 -43 -3 -5 -7
-21 -9 -36 -3 -15 -7 -38 -10 -52 -9 -41 -17 -84 -20 -105 -2 -11 -10 -65 -19
-120 -34 -219 -40 -319 -40 -610 -1 -217 6 -377 19 -465 2 -14 6 -45 9 -70 3
-25 9 -63 12 -84 4 -21 8 -53 10 -70 2 -17 8 -51 14 -76 6 -25 13 -61 15 -80
3 -19 11 -53 16 -75 6 -22 12 -47 14 -55 2 -8 13 -51 24 -95 12 -44 23 -87 25
-95 30 -119 180 -512 228 -598 10 -18 18 -39 18 -46 0 -8 3 -16 8 -18 4 -1 23
-34 42 -73 39 -79 101 -193 134 -245 144 -228 296 -436 431 -589 65 -74 79
-89 165 -176 135 -139 257 -248 400 -360 41 -32 78 -64 82 -69 5 -7 8 -7 8 -1
0 6 3 6 8 0 4 -6 43 -36 87 -68 44 -31 86 -61 93 -67 6 -6 12 -7 12 -3 0 4 4
4 8 -2 4 -5 22 -18 39 -28 31 -17 51 -19 183 -16 25 1 52 1 60 0 8 -1 35 -1
60 0 25 1 52 1 60 0 8 -1 35 -1 60 0 25 1 52 1 60 0 8 -1 35 -1 60 0 25 1 52
1 60 0 8 -1 35 -1 60 0 25 1 52 1 60 0 8 -1 35 -1 60 0 25 1 52 1 60 0 8 -1
35 -1 60 0 25 1 52 1 60 0 8 -1 35 -1 60 0 25 1 52 1 60 0 8 -1 35 -1 60 0 25
1 52 1 60 0 8 -1 35 -1 60 0 25 1 52 1 60 0 8 -1 35 -1 60 0 25 1 52 1 60 0 8
-1 35 -1 60 0 25 1 52 1 60 0 8 -1 35 -1 60 0 25 1 52 1 60 0 8 -1 35 -1 60 0
25 1 52 1 60 0 8 -1 35 -1 60 0 25 1 52 1 60 0 38 -3 125 1 132 5 4 3 8 2 8
-3 0 -4 46 -7 102 -6 101 2 218 3 248 2 8 0 44 0 80 0 36 0 72 0 80 0 8 0 44
0 80 0 36 0 72 0 80 0 8 0 44 0 80 0 36 0 72 0 80 0 8 0 44 0 80 0 36 0 72 0
80 0 8 0 44 0 80 0 36 0 72 0 80 0 8 0 44 0 80 0 36 0 72 0 80 0 8 0 44 0 80
0 36 0 72 0 80 0 8 0 44 0 80 0 36 0 72 0 80 0 8 0 44 0 80 0 36 0 72 0 80 0
8 0 44 0 80 0 36 0 72 0 80 0 24 -1 151 0 205 2 28 1 57 1 65 0 28 -2 135 0
151 2 9 2 28 10 42 20 15 9 31 17 37 17 5 0 10 4 10 8 0 4 25 23 55 41 30 18
55 38 55 43 0 5 4 7 9 3 6 -3 13 0 18 7 4 7 24 24 43 37 169 116 418 342 621
562 44 48 167 196 212 254 52 69 126 172 169 238 29 45 56 84 61 85 4 2 7 8 7
12 0 5 14 33 31 62 57 95 72 122 116 206 23 46 46 89 50 95 4 7 8 14 9 17 0 3
13 32 29 65 55 117 93 213 88 219 -4 3 -1 6 5 6 7 0 12 8 12 18 0 10 3 22 7
26 4 3 8 12 10 19 1 7 19 57 38 112 45 123 107 346 134 480 30 149 33 165 46
255 3 19 8 52 11 72 3 21 7 57 9 80 3 24 8 81 12 128 10 116 10 543 0 660 -5
52 -9 112 -10 132 -1 21 -6 38 -10 38 -5 0 -6 4 -3 9 3 4 1 37 -5 72 -5 35
-12 79 -14 99 -3 19 -12 69 -20 110 -8 41 -17 84 -19 95 -8 40 -18 80 -23 95
-3 8 -7 22 -8 30 -7 48 -80 295 -95 322 -6 10 -10 26 -10 36 0 10 -4 22 -8 28
-4 5 -16 34 -26 64 -10 30 -29 78 -42 107 -13 28 -24 54 -24 57 0 28 -244 506
-269 526 -3 3 -17 25 -30 50 -14 25 -28 47 -32 50 -4 3 -15 19 -25 36 -75 123
-165 242 -360 473 -44 52 -313 320 -369 368 -28 23 -63 54 -80 68 -84 73 -294
227 -379 279 -17 10 -33 22 -36 26 -3 4 -18 15 -35 24 -16 10 -46 27 -66 39
-176 105 -386 211 -559 281 -36 15 -74 31 -85 36 -60 27 -311 110 -332 110 -7
0 -21 4 -31 9 -16 9 -112 35 -172 47 -14 3 -41 9 -60 14 -19 5 -51 12 -70 15
-19 3 -53 10 -76 15 -22 5 -58 12 -80 14 -62 8 -118 17 -134 21 -8 2 -39 5
-67 6 -29 2 -53 5 -53 8 0 3 -28 7 -63 9 -118 4 -605 11 -608 7z m1163 -3828
c97 -63 171 -144 221 -240 25 -45 54 -122 47 -122 -2 0 3 -11 10 -25 16 -29
23 -242 9 -278 -5 -13 -11 -37 -14 -54 -16 -87 -87 -208 -174 -295 -44 -44
-161 -129 -161 -117 0 3 -6 2 -12 -4 -21 -17 -119 -51 -168 -59 -115 -18 -273
-3 -360 35 -19 9 -38 16 -41 16 -10 1 -133 85 -159 109 -69 63 -170 214 -170
255 0 8 7 11 18 8 109 -31 219 -40 302 -23 25 5 55 10 68 10 12 1 22 5 22 9 0
4 8 8 18 8 23 0 136 56 171 84 138 110 238 267 259 406 15 95 6 252 -17 313
-6 14 -7 27 -4 30 8 8 70 -22 135 -66z m1505 -264 c252 -115 408 -371 389
-638 -5 -71 -12 -120 -16 -120 -1 0 -3 -11 -6 -25 -5 -30 -75 -175 -101 -208
-26 -34 -136 -142 -144 -142 -4 0 -14 -6 -21 -13 -21 -21 -139 -75 -201 -93
-77 -21 -216 -25 -301 -7 -64 13 -193 64 -206 81 -3 4 -17 14 -31 22 -53 30
-179 162 -179 188 0 6 -4 12 -8 14 -8 3 -62 111 -58 115 1 1 31 -5 66 -14 77
-18 197 -23 260 -10 25 5 52 9 60 9 8 1 21 5 28 11 6 5 12 7 12 4 0 -3 26 6
58 19 128 57 256 176 319 299 51 98 67 167 67 290 0 107 -3 135 -23 203 -11
37 -12 37 36 15z m-1167 -1346 c65 -45 158 -144 183 -194 5 -13 14 -23 19 -23
4 0 8 -8 8 -18 0 -10 4 -22 9 -27 7 -8 31 -70 37 -97 1 -5 2 -9 3 -10 9 -11
14 -71 15 -168 0 -127 -18 -203 -75 -311 -87 -164 -263 -295 -444 -332 -64
-13 -210 -15 -260 -3 -55 12 -83 21 -115 35 -19 8 -38 15 -41 15 -13 2 -136
87 -164 114 -46 45 -85 91 -85 101 0 5 -4 11 -9 13 -13 5 -81 137 -73 142 4 2
32 -2 62 -11 55 -15 219 -21 275 -11 86 16 208 68 265 113 131 104 221 240
257 389 14 58 10 224 -7 288 -10 37 -15 69 -12 72 6 7 95 -39 152 -77z"/>
<path d="M2908 1922 c-26 -3 -27 -5 -23 -55 2 -29 7 -65 10 -82 4 -16 8 -37
10 -45 2 -8 4 -16 5 -17 2 -2 3 -6 4 -10 1 -5 10 -25 19 -47 9 -21 17 -40 17
-42 0 -2 16 -28 36 -57 44 -63 134 -157 152 -157 6 0 12 -4 12 -8 0 -11 78
-54 145 -80 60 -24 108 -33 188 -37 32 -1 60 -5 63 -8 4 -3 17 -2 30 3 13 5
24 6 24 2 0 -4 25 -7 55 -7 30 0 55 3 55 7 0 4 11 3 25 -2 15 -6 26 -6 30 1 4
5 11 7 16 3 5 -3 46 -7 92 -8 45 -2 100 -8 122 -14 22 -6 43 -12 47 -12 4 0
44 -19 89 -42 143 -72 262 -210 314 -363 21 -62 24 -76 31 -145 3 -30 7 -56 9
-58 2 -2 -1 -17 -5 -33 -5 -18 -5 -29 1 -29 6 0 7 -5 4 -11 -4 -5 -7 -48 -7
-94 0 -46 3 -89 7 -94 3 -6 2 -11 -3 -11 -4 0 -6 -23 -2 -50 4 -28 2 -50 -2
-50 -5 0 -7 -3 -5 -7 3 -5 8 -29 11 -55 11 -79 60 -148 133 -184 35 -18 71
-19 483 -22 465 -3 491 -1 554 40 48 31 94 105 102 162 9 71 10 126 2 126 -4
0 -3 13 2 30 5 17 5 30 0 30 -5 0 -5 13 0 30 5 17 5 30 0 30 -5 0 -5 13 0 30
5 17 5 30 0 30 -4 0 -5 15 -1 33 4 17 4 47 0 65 -3 17 -4 32 0 32 3 0 6 21 7
48 1 84 22 160 72 257 45 86 166 211 243 249 30 15 61 31 69 36 28 16 125 40
179 45 30 2 56 7 58 9 3 3 16 1 29 -4 14 -6 26 -6 29 0 4 6 13 7 23 1 11 -6
24 -6 34 0 10 6 19 6 23 0 4 -7 15 -7 30 -1 14 5 25 6 25 2 0 -4 13 -7 29 -7
16 0 27 3 24 7 -2 5 7 4 21 -2 15 -5 28 -6 31 0 3 6 15 6 30 0 14 -5 25 -6 25
-2 0 4 17 7 38 8 131 2 279 71 389 180 60 60 137 169 133 189 0 3 6 18 15 33
19 34 41 134 40 186 0 30 -4 40 -18 42 -11 1 -21 5 -24 8 -3 3 -14 1 -24 -4
-11 -7 -20 -7 -24 0 -3 6 -15 6 -30 0 -15 -6 -27 -6 -30 0 -3 6 -15 6 -30 0
-15 -6 -27 -6 -30 0 -3 6 -15 6 -30 0 -15 -6 -27 -6 -30 0 -3 6 -15 6 -30 0
-15 -6 -27 -6 -30 0 -3 5 -15 6 -28 1 -12 -5 -34 -5 -49 0 -16 4 -28 4 -28 -1
0 -5 -13 -5 -30 0 -17 5 -30 5 -30 0 0 -5 -13 -5 -30 0 -17 5 -30 5 -30 0 0
-5 -13 -5 -30 0 -19 5 -30 5 -30 -1 0 -6 -5 -7 -10 -4 -13 8 -184 10 -196 2
-6 -3 -16 -2 -24 3 -8 5 -21 5 -30 0 -9 -5 -22 -5 -28 -1 -7 4 -33 5 -58 1
-24 -4 -47 -3 -50 1 -2 5 -16 4 -29 -1 -15 -6 -27 -6 -30 0 -3 6 -15 6 -30 0
-15 -6 -27 -6 -30 0 -3 6 -15 6 -30 0 -15 -6 -27 -6 -30 0 -3 6 -15 6 -30 0
-15 -6 -27 -6 -30 0 -3 6 -15 6 -30 0 -15 -6 -27 -6 -30 0 -3 6 -15 6 -30 0
-15 -6 -27 -6 -30 0 -3 6 -15 6 -30 0 -15 -6 -27 -6 -30 0 -3 6 -15 6 -30 0
-15 -6 -27 -6 -30 0 -3 6 -15 6 -30 0 -15 -6 -27 -6 -30 0 -3 6 -15 6 -30 0
-15 -6 -27 -6 -30 0 -3 5 -15 6 -28 1 -12 -5 -34 -5 -49 0 -16 4 -28 4 -28 -1
0 -5 -13 -5 -30 0 -17 5 -30 5 -30 0 0 -5 -13 -5 -30 0 -17 5 -30 5 -30 0 0
-5 -13 -5 -30 0 -19 5 -30 5 -30 -1 0 -6 -5 -7 -10 -4 -13 8 -184 10 -196 2
-6 -3 -16 -2 -24 3 -8 5 -21 5 -30 0 -9 -5 -22 -5 -29 -1 -7 5 -27 5 -45 1
-18 -4 -42 -3 -54 1 -12 5 -24 4 -27 -1 -3 -6 -15 -6 -30 0 -15 6 -27 6 -30 0
-3 -5 -12 -7 -20 -4 -21 8 -295 10 -295 2 0 -4 -13 -3 -30 2 -17 5 -32 5 -35
0 -3 -5 -15 -6 -28 -1 -12 5 -32 5 -44 0 -13 -5 -25 -4 -28 1 -3 6 -15 6 -30
0 -15 -6 -27 -6 -30 0 -3 6 -15 6 -30 0 -15 -6 -27 -6 -30 0 -3 6 -15 6 -30 0
-15 -6 -27 -6 -30 0 -3 6 -15 6 -30 0 -15 -6 -27 -6 -30 0 -3 6 -15 6 -30 0
-15 -6 -27 -6 -30 0 -3 6 -15 6 -30 0 -15 -6 -27 -6 -30 0 -3 6 -15 6 -30 0
-15 -6 -27 -6 -30 0 -3 6 -15 6 -30 0 -15 -6 -27 -6 -30 0 -3 6 -15 6 -30 0
-15 -6 -27 -6 -30 0 -3 6 -15 6 -29 0 -13 -5 -27 -6 -30 -3 -8 8 -102 7 -116
-2 -5 -3 -10 -2 -10 4 0 6 -11 6 -30 1 -16 -5 -32 -5 -35 0 -3 5 -19 5 -35 0
-16 -5 -32 -5 -35 0 -3 5 -19 5 -35 0 -17 -5 -32 -5 -35 0 -3 5 -16 5 -30 0
-15 -6 -27 -6 -30 0 -3 6 -15 6 -30 0 -15 -6 -25 -6 -25 0 0 5 -12 5 -30 0
-16 -5 -32 -5 -35 0 -3 5 -19 5 -35 0 -16 -5 -32 -5 -35 0 -3 5 -19 5 -35 0
-18 -5 -32 -5 -36 1 -3 5 -10 7 -15 4 -14 -9 -90 -12 -95 -3 -3 4 -16 3 -29
-2 -14 -5 -27 -5 -30 0 -3 5 -18 5 -34 0 -15 -4 -34 -4 -41 0 -7 5 -23 4 -35
0 -13 -5 -26 -5 -31 -1 -5 3 -21 5 -36 3z"/>
</g>
</svg>
